PathFileType	4	(X/Y/Z)	Kaydara																																																																																																																									
DataRate	CameraRate	NumFrames	NumMarkers	Units	OrigDataRate	OrigDataStartFrame	OrigNumFrames																																																																																																																					
30	30	8	41	mm	30	147	195																																																																																																																					
Frame#	Time	NABA_LFHD			NABA_RFHD			NABA_LBHD			NABA_RBHD			NABA_LFTShould			NABA_RFTShould			NABA_LRRShould			NABA_RRRShould			NABA_T10			NABA_STRN			NABA_TRUN			NABA_LSHO			NABA_LUPA			NABA_LELB			NABA_LFRM			NABA_LWRA			NABA_LWRB			NABA_LFIN			NABA_RSHO			NABA_RUPA			NABA_RELB			NABA_RFRM			NABA_RWRA			NABA_RWRB			NABA_RFIN			NABA_LFWT			NABA_RFWT			NABA_LBWT			NABA_RBWT			NABA_LTHI			NABA_LKNE			NABA_LSHN			NABA_LANK			NABA_LHEE			NABA_LTOE			NABA_RTHI			NABA_RKNE			NABA_RSHN			NABA_RANK			NABA_RHEE			NABA_RTOE		
		X1	Y1	Z1	X2	Y2	Z2	X3	Y3	Z3	X4	Y4	Z4	X5	Y5	Z5	X6	Y6	Z6	X7	Y7	Z7	X8	Y8	Z8	X9	Y9	Z9	X10	Y10	Z10	X11	Y11	Z11	X12	Y12	Z12	X13	Y13	Z13	X14	Y14	Z14	X15	Y15	Z15	X16	Y16	Z16	X17	Y17	Z17	X18	Y18	Z18	X19	Y19	Z19	X20	Y20	Z20	X21	Y21	Z21	X22	Y22	Z22	X23	Y23	Z23	X24	Y24	Z24	X25	Y25	Z25	X26	Y26	Z26	X27	Y27	Z27	X28	Y28	Z28	X29	Y29	Z29	X30	Y30	Z30	X31	Y31	Z31	X32	Y32	Z32	X33	Y33	Z33	X34	Y34	Z34	X35	Y35	Z35	X36	Y36	Z36	X37	Y37	Z37	X38	Y38	Z38	X39	Y39	Z39	X40	Y40	Z40	X41	Y41	Z41
																																																																																																																												
147	4.877	191.09383	1440.71106	1040.6678	24.30945	1396.19949	1044.9427	199.41669	1504.08905	931.38451	-13.91177	1447.17331	964.68399	192.74174	1290.67245	890.30792	49.58288	1281.63818	878.30673	173.68572	1328.93158	774.38049	78.94573	1328.95859	767.18513	145.8462	1155.1413	726.24496	113.40913	1251.63872	925.93277	116.96081	1185.8136	1001.0675	260.59095	1324.42978	799.21036	303.00695	1161.32599	674.01794	351.74503	1099.38103	632.79949	357.04075	1028.10493	598.84243	495.75897	914.68483	601.33873	478.78605	939.29886	537.65179	523.43094	953.74779	528.32195	12.84414	1320.64667	775.32616	26.48803	1176.96945	658.19908	-31.68427	1113.53249	566.76075	-92.03613	1051.65649	507.7787	-253.07943	1017.21672	493.41442	-220.62399	1027.25525	427.36675	-246.88128	1055.57388	423.89698	253.13787	893.79967	1021.56418	-11.42577	897.62505	997.54128	221.31498	938.24883	843.52257	48.87532	946.74599	818.92845	258.20503	605.17338	848.93547	234.13647	447.66426	868.76389	163.49791	257.49031	827.0134	193.76369	127.36103	724.28139	143.07874	98.6081	647.08412	138.94911	50.52332	809.44237	-8.18727	598.03082	968.25806	9.62546	490.86498	1141.2487	20.91015	319.03048	1166.06857	16.70692	117.26798	1151.04599	66.36768	58.2463	1100.33577	31.06236	70.59732	1279.74815
148	4.91	191.02131	1431.10443	1083.30399	24.67863	1385.30533	1088.92593	197.25948	1497.49359	975.59822	-15.05569	1438.12775	1010.67757	188.57906	1286.22757	928.17154	49.2048	1274.38126	915.50873	171.94187	1329.40765	814.46526	78.60663	1328.49869	806.99677	146.70195	1155.44418	763.24265	111.48633	1242.9187	964.17557	113.62766	1176.4402	1038.13309	255.21175	1326.44699	839.15657	314.1362	1174.80064	709.85733	368.83121	1121.42418	666.31737	382.28619	1052.78358	629.86031	540.62927	969.37119	619.10133	510.19028	984.19724	558.52074	545.98	1006.97075	540.13428	13.92878	1321.17767	814.76669	18.29295	1181.46561	689.65721	-43.38079	1132.21848	593.76537	-104.76976	1087.21695	525.95997	-264.9213	1093.23341	488.33447	-220.87757	1090.5304	428.829	-236.42874	1124.12643	420.77511	254.60957	888.24371	1052.42294	-12.40991	890.38475	1034.19495	219.62465	934.65179	876.00319	44.49509	941.95122	854.1301	256.43581	603.71357	873.54378	234.8962	445.59319	889.44168	165.71585	256.1138	839.99718	194.98911	131.90557	729.77051	143.7863	107.26289	651.79771	140.63684	50.6988	811.20934	-11.61406	594.19361	1011.56685	13.1636	492.44213	1183.31909	22.14508	322.60445	1218.54004	15.45602	120.28357	1220.60165	62.31522	56.1053	1173.20702	36.22739	83.67042	1352.89688
149	4.943	189.83292	1428.93646	1126.13106	23.36896	1383.4523	1131.52542	196.27962	1495.71747	1018.68759	-16.02886	1436.61758	1053.55637	186.41459	1282.41043	968.1665	48.86045	1270.75462	953.29361	170.5691	1332.27127	856.80885	79.2334	1331.66153	848.00537	146.29899	1158.74657	802.10304	109.80579	1237.91351	1004.59679	111.80542	1169.38141	1078.56102	252.13905	1329.2244	884.69864	326.29143	1188.98315	752.85042	384.59015	1142.44766	709.80125	402.00939	1077.73949	668.27301	562.76806	1000.08698	655.28976	535.807	1023.66531	595.65491	572.5613	1049.84268	584.25835	16.10206	1324.92966	856.48361	15.63527	1194.09073	725.43907	-51.16985	1160.25528	624.99706	-110.58533	1121.20674	553.23719	-270.64619	1125.94589	516.63628	-227.31834	1131.76331	457.70199	-243.29611	1165.53329	453.08533	255.2939	884.69429	1083.20747	-12.88722	889.02542	1071.65192	212.80193	930.08827	905.18646	40.46841	940.03044	889.82513	253.04893	605.72498	898.56796	236.43042	446.89491	911.83418	169.02014	257.88771	855.37025	197.54425	140.80926	737.46986	145.3861	120.52199	659.01726	143.28602	51.72906	814.32014	-12.95129	591.90891	1045.62309	12.52555	490.61081	1215.64751	20.87879	323.1279	1258.29224	14.71149	121.41597	1271.07231	60.27943	54.67112	1227.01706	37.83239	90.52111	1405.87418
150	4.977	188.36241	1432.22	1169.32724	22.06157	1386.22726	1174.50264	194.81995	1498.93982	1061.8602	-17.54046	1439.2984	1096.57219	185.26861	1284.60007	1010.83153	48.89656	1274.28146	993.33679	171.06197	1337.34207	900.43213	80.70516	1337.38419	890.49614	146.19722	1164.55917	843.30437	108.78649	1239.4252	1046.24023	110.70682	1170.39749	1119.11255	251.71412	1333.68195	929.94102	331.20842	1196.10794	799.40895	395.77946	1153.13087	759.77486	414.88091	1091.82411	716.55243	573.13061	1009.54468	705.45303	552.2942	1040.08987	648.43491	591.33205	1066.7942	643.77281	18.02553	1331.39725	898.56216	13.93786	1206.25778	763.91785	-56.50219	1174.44344	665.8477	-117.29041	1135.45959	595.28759	-279.05294	1128.44116	565.7444	-240.17696	1143.77785	505.4565	-260.56158	1175.87555	505.21187	255.16371	886.67847	1116.26183	-13.44089	891.72653	1110.6456	203.62671	933.92921	938.28041	35.79752	943.09105	927.8215	250.39454	611.56322	926.52908	239.1926	452.29504	937.34207	174.31347	263.7007	874.23546	200.78369	155.02925	747.97508	146.98196	139.57681	670.36919	146.93652	53.43244	819.31145	-14.08273	592.08118	1075.98244	10.34064	485.29659	1241.77811	20.60901	320.63374	1286.52145	15.78124	119.05288	1302.29462	61.61397	51.45267	1259.56459	39.25045	90.33906	1437.6857
151	5.01	187.62699	1438.79608	1212.85339	21.23077	1393.14575	1217.77969	194.55486	1504.83612	1104.95094	-18.1645	1445.8403	1139.36691	184.566	1290.42969	1055.3833	48.34125	1281.5741	1036.93214	171.99333	1342.29782	944.851	80.79966	1342.86987	933.87711	145.98495	1169.84116	887.55257	107.95588	1245.86716	1089.56398	109.7812	1177.01645	1161.59653	253.02189	1337.93289	975.67268	339.9165	1197.51404	853.0397	402.4976	1152.64198	816.8718	420.35522	1088.18909	774.29268	577.8054	1003.59016	767.47177	557.18239	1032.03049	708.22258	596.00105	1057.92236	703.18108	17.51047	1337.32147	941.05484	7.80347	1208.24562	808.78616	-68.93158	1175.43251	715.52567	-128.34422	1130.94437	647.81021	-289.64258	1112.49306	624.19689	-254.10656	1130.22682	562.34032	-276.60959	1160.72464	562.91313	252.4893	891.1129	1154.18533	-16.16992	895.34149	1150.80215	195.69448	942.7034	977.29744	32.10869	950.74341	968.7262	249.05632	619.18354	959.38194	243.14919	459.7382	967.67776	182.06516	272.42188	896.97853	207.6766	171.84626	763.32306	153.45294	161.52843	686.91391	151.73052	54.68822	825.82474	-16.61335	594.88716	1103.63464	10.72764	481.52428	1263.48228	22.56262	315.40798	1303.34244	19.13475	113.88781	1315.2092	62.81626	47.89994	1269.76585	50.2953	80.08385	1450.0412
152	5.043	188.65919	1449.16672	1255.26611	22.33334	1403.61099	1262.11586	194.82134	1514.11423	1146.74599	-17.6876	1455.31586	1183.37509	184.42318	1297.04895	1100.02617	47.79195	1289.39346	1081.97365	173.39491	1347.38739	988.45131	78.59823	1348.7851	977.68478	144.53595	1175.09399	932.54097	107.31297	1253.97522	1134.37035	108.04417	1182.7552	1205.80605	256.69212	1341.48193	1021.02829	340.09586	1189.38698	906.18683	402.12502	1138.86765	873.46413	417.42954	1073.54324	835.79697	570.76141	981.86188	833.22311	551.85429	1008.68309	772.95868	591.38935	1032.44141	766.80809	13.13564	1343.23425	986.10542	0.59463	1205.34088	859.56566	-77.77464	1162.46895	772.6828	-136.45723	1113.35579	709.02542	-296.75831	1082.89993	690.10666	-264.32814	1100.05943	626.54366	-289.28116	1128.81691	626.24668	247.76403	895.57404	1194.95644	-20.49407	900.75066	1190.3952	192.18025	950.78911	1019.16733	29.59854	961.19568	1010.36911	248.74298	625.03109	998.42041	247.95261	466.0722	1008.04527	192.09126	280.05091	929.01863	218.41181	189.67644	787.99545	164.68975	184.99147	713.1485	155.88531	54.04984	835.1384	-18.57506	602.18277	1126.05042	10.35823	479.79622	1280.45609	24.92753	315.22018	1315.8107	21.46549	113.08692	1324.44443	62.12748	49.6808	1274.38301	60.00901	69.45009	1457.8978
153	5.077	190.98703	1461.66138	1295.88531	24.59224	1417.24045	1305.93231	196.69205	1524.25262	1186.27464	-15.9713	1467.18643	1226.22513	184.23992	1304.69315	1144.42284	47.62168	1296.99799	1126.65283	173.75353	1353.98041	1032.07138	76.24235	1355.59906	1022.29439	142.08284	1182.14783	975.588	107.12716	1261.46843	1179.23782	106.67902	1189.26208	1252.1019	259.68382	1346.09833	1065.55664	338.26618	1181.75552	958.11974	397.22008	1125.79422	930.91858	407.01504	1057.2258	895.75607	548.93871	948.7648	900.88661	536.60763	977.38098	839.92203	579.49306	996.25359	836.41426	8.97162	1350.2002	1032.68143	-6.18392	1206.27007	910.52498	-86.94014	1153.39508	832.13409	-140.43219	1094.00139	773.84232	-295.47079	1042.1122	761.89491	-268.75656	1061.78757	696.56609	-297.60412	1086.69083	697.16019	243.1554	901.42509	1232.86613	-23.45026	908.12164	1227.2641	193.52142	957.93976	1058.37669	29.0266	972.14867	1049.19914	249.01001	624.91058	1044.73267	254.5433	467.56413	1063.1311	205.6155	283.93885	975.53917	230.00582	207.16513	826.2883	175.38961	209.32259	754.76776	161.7985	53.69732	849.72076	-21.97302	609.76154	1149.25293	5.95834	481.73058	1298.94318	19.78893	314.01276	1327.76672	18.3989	111.79341	1328.39371	60.96282	51.14452	1277.48238	56.32639	59.36576	1462.22733
154	5.11	194.44887	1473.57361	1334.60815	27.61079	1431.57547	1348.2637	199.53434	1531.13098	1222.43668	-13.06039	1478.47015	1266.83937	184.24833	1308.48862	1186.08902	46.14239	1302.30576	1171.62514	173.89818	1356.72028	1073.53981	71.02316	1358.65082	1065.8313	137.61423	1185.68382	1016.6153	107.18622	1266.79489	1222.12814	106.38436	1194.24088	1295.81772	262.2965	1346.88675	1108.31261	335.72166	1169.57321	1009.95522	389.03252	1107.5737	987.21329	392.5684	1037.55386	953.80287	518.24207	911.2764	966.5522	515.21423	942.41409	906.16776	561.21681	954.90692	906.81618	2.06471	1352.97775	1080.0354	-13.31197	1204.09485	961.0556	-93.94384	1140.59792	891.14563	-142.23921	1074.39102	837.49466	-287.55619	998.52112	834.52377	-269.8551	1023.71597	767.0285	-303.10337	1042.41859	771.67427	240.97931	905.14114	1265.99937	-25.36409	912.89856	1262.5132	196.68257	962.57248	1094.32396	27.73381	979.16763	1085.15579	250.6435	617.31232	1096.24512	260.45279	462.53471	1130.12802	214.11058	286.00094	1034.39171	239.37153	223.28089	878.88557	185.94866	234.02103	810.2269	170.0832	62.90658	875.952	-26.84572	615.98431	1175.01526	0.00448	481.1467	1317.0929	16.4994	312.93036	1341.56265	18.25649	110.85446	1334.20822	60.23526	52.99593	1280.44724	64.22058	52.89255	1466.3504
